HIERARCHY
ROOT Hips
{
  OFFSET 40.9192 92.6879 18.85
  CHANNELS 6 Xposition Yposition Zposition Zrotation Xrotation Yrotation
  JOINT LeftUpLeg
  {
    OFFSET 8.64259 1.95398 -2.38835
    CHANNELS 3 Zrotation Xrotation Yrotation
    JOINT LeftLeg
    {
      OFFSET 43.7702 0 0
      CHANNELS 3 Zrotation Xrotation Yrotation
      JOINT LeftFoot
      {
        OFFSET 40.6238 0 0
        CHANNELS 3 Zrotation Xrotation Yrotation
        JOINT LeftToeBase
        {
          OFFSET 12.7242 0 0
          CHANNELS 3 Zrotation Xrotation Yrotation
          End Site
          {
            OFFSET 0 0 0
          }
        }
      }
    }
  }
  JOINT RightUpLeg
  {
    OFFSET -8.2249 1.95398 -2.59336
    CHANNELS 3 Zrotation Xrotation Yrotation
    JOINT RightLeg
    {
      OFFSET 43.5653 0 0
      CHANNELS 3 Zrotation Xrotation Yrotation
      JOINT RightFoot
      {
        OFFSET 40.6238 0 0
        CHANNELS 3 Zrotation Xrotation Yrotation
        JOINT RightToeBase
        {
          OFFSET 12.7242 0 0
          CHANNELS 3 Zrotation Xrotation Yrotation
          End Site
          {
            OFFSET 0 0 0
          }
        }
      }
    }
  }
  JOINT Spine
  {
    OFFSET 0.165834 0.87714 6.61349
    CHANNELS 3 Zrotation Xrotation Yrotation
    JOINT Spine1
    {
      OFFSET 7.38963 1.71661e-005 0
      CHANNELS 3 Zrotation Xrotation Yrotation
      JOINT Spine2
      {
        OFFSET 11.9445 1.14441e-005 0
        CHANNELS 3 Zrotation Xrotation Yrotation
        JOINT Spine3
        {
          OFFSET 14.7254 4.19617e-005 0
          CHANNELS 3 Zrotation Xrotation Yrotation
          JOINT Spine4
          {
            OFFSET 10.9679 0 0
            CHANNELS 3 Zrotation Xrotation Yrotation
            JOINT RightShoulder
            {
              OFFSET 2.46616 -1.6653 3.69651
              CHANNELS 3 Zrotation Xrotation Yrotation
              JOINT RightArm
              {
                OFFSET 13.0012 0 0
                CHANNELS 3 Zrotation Xrotation Yrotation
                JOINT RightForeArm
                {
                  OFFSET 28.7848 1.52588e-005 0
                  CHANNELS 3 Zrotation Xrotation Yrotation
                  JOINT RightHand
                  {
                    OFFSET 26.5688 1.52588e-005 0
                    CHANNELS 3 Zrotation Xrotation Yrotation
                    End Site
                    {
                      OFFSET 0 0 0
                    }
                  }
                }
              }
            }
            JOINT LeftShoulder
            {
              OFFSET 2.38034 -1.29275 -3.7523
              CHANNELS 3 Zrotation Xrotation Yrotation
              JOINT LeftArm
              {
                OFFSET 16.3182 6.10351e-005 0
                CHANNELS 3 Zrotation Xrotation Yrotation
                JOINT LeftForeArm
                {
                  OFFSET 27.0901 0 0
                  CHANNELS 3 Zrotation Xrotation Yrotation
                  JOINT LeftHand
                  {
                    OFFSET 24.5451 1.52588e-005 0
                    CHANNELS 3 Zrotation Xrotation Yrotation
                    End Site
                    {
                      OFFSET 0 0 0
                    }
                  }
                }
              }
            }
            JOINT Neck
            {
              OFFSET 5.0226 -0.0266342 0
              CHANNELS 3 Zrotation Xrotation Yrotation
              JOINT Head
              {
                OFFSET 6.69363 2.86102e-005 0
                CHANNELS 3 Zrotation Xrotation Yrotation
                End Site
                {
                  OFFSET 0 0 0
                }
              }
            }
          }
        }
      }
    }
  }
}
MOTION
Frames:	9
Frame Time:	0.0416667
-95.7024 94.0507 -62.907 44.538 -63.7665 56.0331 -161.55 55.2259 92.5263 -38.2389 14.8615 -9.6972 56.121 -3.79127 0.0515238 48.422 18.0218 14.0713 177.634 -2.11838 89.119 -36.653 -8.82476 -6.48953 42.8597 2.87015 2.90561 30.8652 0.503562 -8.73623 1.56404 7.72833 -89.6889 11.4185 3.25734 0.289297 -0.248393 3.2669 0.14549 -22.8127 3.01965 1.25575 -2.80009 3.01966 1.25576 94.263 -39.3055 -96.1252 34.1541 -17.791 11.41 -20.1628 3.02467 -103.101 -23.7486 -0.00991122 -4.6231 -94.1155 -44.3251 70.9254 -45.6433 1.34432 49.3726 -2.1227 -3.39614 -79.3683 28.5681 1.74619 2.25396 11.8746 3.27455 -1.4229 11.6604 3.7168 1.52111 
-88.8899 93.4592 -54.3896 51.8893 -62.059 62.9944 -160.198 49.6617 90.2557 -40.7212 14.2864 -9.73452 56.7604 -2.92352 -0.943656 47.4781 17.6857 17.0056 -179.281 3.78518 91.8435 -58.1855 -4.93779 -6.17188 39.6332 3.67623 3.8198 30.3573 0.365875 -5.67436 1.16481 7.94169 -89.5968 10.9859 2.50563 0.563329 -0.682725 2.52801 0.452429 -23.2329 2.22045 1.29065 -3.22026 2.22046 1.29065 92.8354 -41.1172 -98.2386 35.0322 -16.2701 16.3377 -15.0759 -2.25243 -93.9216 -22.305 -0.262862 -3.53249 -93.7469 -46.6224 72.1953 -41.1302 1.23003 43.9504 0.88636 -2.71336 -80.5289 29.8475 0.83585 -1.16324 8.13802 3.83485 -2.90711 14.3958 4.55231 1.59097 
-82.5132 91.8933 -46.5126 63.7255 -59.8886 71.6888 -160.555 40.6486 87.6703 -46.5812 17.2315 -9.27986 63.6565 3.96948 4.53682 41.2853 10.4657 8.47022 179.754 11.6278 91.9059 -81.9119 0.0457448 -3.58523 39.7695 2.37899 2.54809 31.1819 0.388749 -6.202 0.640589 8.56013 -89.2506 9.74296 1.61622 1.35899 -1.92761 1.67447 1.28655 -24.4617 1.13314 1.78185 -4.44906 1.13313 1.78185 92.9081 -44.4058 -97.4179 34.0716 -16.8918 19.9538 -10.0789 -7.36068 -83.2057 -23.2505 -0.0772333 -4.49013 -94.6371 -48.4798 71.3953 -34.98 1.63614 36.9847 2.07918 -2.76692 -85.2521 35.0313 0.918952 -1.37014 4.30202 4.39994 -4.94463 18.3381 5.50792 2.13736 
-76.2378 89.657 -38.9427 66.2624 -58.1181 72.086 -160.099 34.7149 85.2541 -52.0638 15.6337 -9.40976 70.134 10.7213 7.62376 42.4647 11.0944 4.06226 179.154 26.3693 92.1906 -100.713 5.88448 -2.24325 39.9352 -0.176784 0.185424 33.1421 0.399608 -6.94191 0.212969 8.91232 -88.836 9.03429 0.944507 2.2393 -2.63813 1.04211 2.19558 -25.1583 0.228053 2.41952 -5.14561 0.228054 2.41952 91.9598 -46.5678 -98.5134 34.3357 -16.9631 24.2336 -4.85769 -9.32777 -71.7194 -23.2245 -0.571538 -2.18077 -95.1458 -48.947 70.7723 -28.5228 1.87829 27.7617 9.95548 -3.20857 -91.498 35.0627 2.13209 2.18955 3.14161 5.19971 -7.20558 21.8202 6.84938 3.03766 
-69.3738 88.1367 -31.6558 65.3518 -55.2127 71.4935 -161.863 28.9853 84.6792 -52.8146 15.4991 -8.63405 73.4838 14.8518 9.77844 46.253 14.2602 4.12785 177.069 43.3465 94.6944 -109.391 6.81286 -2.06882 41.7254 -1.51259 -1.02991 34.4913 0.394065 -7.17553 -0.260226 8.85525 -88.8572 9.15665 -0.00758063 2.26507 -2.51629 0.0921002 2.26321 -25.0365 -0.687803 2.15818 -5.02384 -0.687804 2.15819 91.0029 -45.9431 -100.194 36.3168 -17.8516 31.3876 -2.51835 -13.7949 -63.2925 -22.3756 -0.64703 -1.62939 -93.1952 -46.5063 73.0117 -26.0286 5.21232 16.8392 15.0316 -4.31178 -99.2608 37.0598 3.03626 4.33307 5.45304 5.81328 -7.75268 19.5652 7.50426 2.58991 
-61.3087 88.3591 -23.7652 67.6211 -51.553 76.2881 -165.668 20.2803 87.9675 -48.9615 17.9423 -6.26841 72.1593 14.4622 9.79854 50.0057 17.3647 4.07329 171.155 52.7811 100.086 -105.092 6.32402 -1.82987 47.8159 -1.57854 -1.02158 37.7325 0.312831 -9.68334 -0.70662 8.75797 -89.3648 9.36305 -1.12362 1.34193 -2.30816 -1.06348 1.39008 -24.8441 -1.47497 0.94221 -4.83143 -1.47498 0.942211 90.9733 -46.9645 -100.004 37.0982 -19.4913 41.5507 -0.29346 -15.9276 -60.4188 -20.3129 -0.6044 -1.61028 -90.824 -42.3714 75.6129 -27.706 7.95328 11.3945 19.8571 -9.47188 -108.003 33.735 2.83321 4.58322 6.93766 6.47461 -9.13241 18.1503 8.7708 4.21156 
-52.2643 89.9016 -15.2925 71.1791 -52.1606 81.212 -167.13 7.86958 92.7548 -40.6658 18.874 -4.89032 64.658 6.57564 3.32982 50.8203 18.8005 7.48502 171.024 54.8005 101.619 -91.2064 1.91964 -0.960549 53.9516 -0.841065 -0.451826 36.6166 0.356677 -8.81174 -0.925963 8.78637 -89.7796 9.30578 -1.74762 0.564429 -2.36416 -1.72107 0.64082 -24.9086 -1.83643 0.012937 -4.896 -1.83642 0.012942 90.0791 -46.6587 -101.5 38.9676 -20.3704 51.4293 1.69084 -15.5384 -60.7945 -19.5483 -0.466369 -2.34712 -89.7437 -41.1988 77.0774 -28.5938 9.40222 10.2501 22.6122 -13.8946 -114.957 36.4785 2.84119 3.92662 7.69181 7.59882 -9.67879 15.2923 10.3799 6.90365 
-42.98 91.8023 -6.07083 73.4296 -51.9176 84.0469 -169.148 -2.77883 94.8357 -26.6808 23.1098 -2.17399 43.2812 -9.21661 -8.27657 47.4447 16.2047 9.61909 169.883 52.2478 101.595 -69.6473 -2.84635 1.27517 56.1983 0.134527 0.269582 38.76 0.271069 -9.56451 -1.20099 8.67681 -90.1182 9.5215 -2.44777 -0.0465895 -2.14712 -2.44745 0.0612452 -24.6995 -2.32054 -0.780493 -4.68683 -2.32055 -0.780503 90.8415 -44.3201 -100.848 42.7947 -22.1984 57.5065 5.83785 -13.4363 -61.3473 -20.0969 -0.315975 -3.34104 -90.1292 -41.5929 76.544 -28.6761 10.1721 12.1454 23.4499 -16.3587 -118.263 36.3119 2.73663 3.64639 7.49622 8.18657 -10.2541 10.0045 11.0532 9.45423 
-33.7125 93.1794 3.95143 70.9277 -51.7899 81.6127 -171.941 -9.16783 92.5292 -22.5746 26.407 -0.039391 32.8347 -15.4135 -11.0104 29.2888 -0.798139 11.4778 171.374 48.6965 99.9866 -44.5471 -6.63309 3.48562 57.3362 0.344729 0.442814 43.5477 0.103076 -9.86801 -1.43543 8.27331 -90.2797 10.3249 -2.98764 -0.295233 -1.34263 -2.99775 -0.163356 -23.9018 -2.76069 -1.18016 -3.88919 -2.76069 -1.18016 90.7689 -42.7483 -101.358 45.4998 -23.5168 60.9536 9.68315 -11.0735 -62.6358 -20.1736 -0.0498839 -4.99869 -90.5473 -41.9301 75.9465 -29.8289 9.98776 15.8788 21.248 -14.3796 -116.699 36.6819 1.99799 1.52742 5.71247 8.48597 -9.66315 8.59177 11.1455 10.66 
